<svg width="424" height="373" viewBox="0 0 424 373" fill="none" xmlns="http://www.w3.org/2000/svg">
<path d="M125.038 353.447L114.131 372.661H387.18C406.776 372.661 419.329 351.805 410.154 334.489L404.103 323.068H177.217C155.625 323.068 135.698 334.669 125.038 353.447Z" fill="#3B82F6"/>
<path d="M59.0054 224.694H212.777C224.976 247.035 208.807 274.287 183.352 274.287H88.0187L59.0054 224.694Z" fill="#3B82F6"/>
<path d="M5.62616 312.814L183.684 13.4453C193.758 -3.49116 218.276 -3.50216 228.365 13.4252L239.857 32.7074L39.6631 372.661C8.94836 372.661 -10.0749 339.212 5.62616 312.814Z" fill="#3B82F6"/>
<path d="M419.516 333.39L229.184 12.7291C219.115 -4.23412 194.564 -4.24522 184.48 12.709L173 32.0106L373.193 372.661H397.158C417.312 372.661 429.803 350.722 419.516 333.39Z" fill="#3B82F6"/>
</svg>
